<mxfile modified="2023-09-24T21:54:15.673Z" host="app.diagrams.net" agent="Mozilla/5.0 (Windows NT 10.0; Win64; x64) AppleWebKit/537.36 (KHTML, like Gecko) Chrome/117.0.0.0 Safari/537.36" etag="u-3iAHRPClk3zAibKWLo" version="21.8.0" type="device">
  <diagram id="Ht1M8jgEwFfnCIfOTk4-" name="Page-1">
    <mxGraphModel dx="1179" dy="624" grid="0" gridSize="10" guides="1" tooltips="1" connect="1" arrows="1" fold="1" page="1" pageScale="1" pageWidth="1169" pageHeight="827" math="0" shadow="0">
      <root>
        <mxCell id="0" />
        <mxCell id="1" parent="0" />
        <mxCell id="NUd4dRAfjlIAVgsjIccQ-11" value="" style="rounded=0;whiteSpace=wrap;html=1;fontColor=none;noLabel=1;fillColor=none;dashed=1;dashPattern=8 8;" vertex="1" parent="1">
          <mxGeometry x="523.5" y="180" width="203" height="158" as="geometry" />
        </mxCell>
        <mxCell id="UEzPUAAOIrF-is8g5C7q-74" value="AWS Cloud" style="points=[[0,0],[0.25,0],[0.5,0],[0.75,0],[1,0],[1,0.25],[1,0.5],[1,0.75],[1,1],[0.75,1],[0.5,1],[0.25,1],[0,1],[0,0.75],[0,0.5],[0,0.25]];outlineConnect=0;gradientColor=none;html=1;whiteSpace=wrap;fontSize=14;fontStyle=1;shape=mxgraph.aws4.group;grIcon=mxgraph.aws4.group_aws_cloud_alt;strokeColor=#232F3E;fillColor=none;verticalAlign=top;align=left;spacingLeft=30;fontColor=#232F3E;dashed=0;labelBackgroundColor=#ffffff;container=1;pointerEvents=0;collapsible=0;recursiveResize=0;" parent="1" vertex="1">
          <mxGeometry x="146" y="180" width="362" height="301" as="geometry" />
        </mxCell>
        <mxCell id="kaL9XtYEf6eWF3hwznRp-3" value="Secrets &lt;br&gt;Manager" style="sketch=0;points=[[0,0,0],[0.25,0,0],[0.5,0,0],[0.75,0,0],[1,0,0],[0,1,0],[0.25,1,0],[0.5,1,0],[0.75,1,0],[1,1,0],[0,0.25,0],[0,0.5,0],[0,0.75,0],[1,0.25,0],[1,0.5,0],[1,0.75,0]];outlineConnect=0;fontColor=#232F3E;gradientColor=#F54749;gradientDirection=north;fillColor=#C7131F;strokeColor=#ffffff;dashed=0;verticalLabelPosition=bottom;verticalAlign=top;align=center;html=1;fontSize=14;fontStyle=1;aspect=fixed;shape=mxgraph.aws4.resourceIcon;resIcon=mxgraph.aws4.secrets_manager;" parent="UEzPUAAOIrF-is8g5C7q-74" vertex="1">
          <mxGeometry x="253" y="173" width="78" height="78" as="geometry" />
        </mxCell>
        <mxCell id="kaL9XtYEf6eWF3hwznRp-23" style="edgeStyle=orthogonalEdgeStyle;rounded=0;orthogonalLoop=1;jettySize=auto;html=1;entryX=0.5;entryY=0;entryDx=0;entryDy=0;entryPerimeter=0;" parent="UEzPUAAOIrF-is8g5C7q-74" source="kaL9XtYEf6eWF3hwznRp-2" target="kaL9XtYEf6eWF3hwznRp-3" edge="1">
          <mxGeometry relative="1" as="geometry" />
        </mxCell>
        <mxCell id="kaL9XtYEf6eWF3hwznRp-24" style="edgeStyle=orthogonalEdgeStyle;rounded=0;orthogonalLoop=1;jettySize=auto;html=1;" parent="UEzPUAAOIrF-is8g5C7q-74" edge="1" target="kaL9XtYEf6eWF3hwznRp-1">
          <mxGeometry relative="1" as="geometry">
            <mxPoint x="253" y="105" as="sourcePoint" />
            <mxPoint x="190" y="105" as="targetPoint" />
            <Array as="points">
              <mxPoint x="219" y="105" />
              <mxPoint x="219" y="105" />
            </Array>
          </mxGeometry>
        </mxCell>
        <mxCell id="kaL9XtYEf6eWF3hwznRp-2" value="Lambda Function" style="sketch=0;points=[[0,0,0],[0.25,0,0],[0.5,0,0],[0.75,0,0],[1,0,0],[0,1,0],[0.25,1,0],[0.5,1,0],[0.75,1,0],[1,1,0],[0,0.25,0],[0,0.5,0],[0,0.75,0],[1,0.25,0],[1,0.5,0],[1,0.75,0]];outlineConnect=0;fontColor=#232F3E;gradientColor=#F78E04;gradientDirection=north;fillColor=#D05C17;strokeColor=#ffffff;dashed=0;verticalLabelPosition=top;verticalAlign=bottom;align=center;html=1;fontSize=14;fontStyle=1;aspect=fixed;shape=mxgraph.aws4.resourceIcon;resIcon=mxgraph.aws4.lambda;labelPosition=center;" parent="UEzPUAAOIrF-is8g5C7q-74" vertex="1">
          <mxGeometry x="253" y="58" width="78" height="78" as="geometry" />
        </mxCell>
        <mxCell id="kaL9XtYEf6eWF3hwznRp-22" style="edgeStyle=orthogonalEdgeStyle;rounded=0;orthogonalLoop=1;jettySize=auto;html=1;" parent="UEzPUAAOIrF-is8g5C7q-74" edge="1">
          <mxGeometry relative="1" as="geometry">
            <mxPoint x="190" y="88" as="sourcePoint" />
            <mxPoint x="253" y="88" as="targetPoint" />
          </mxGeometry>
        </mxCell>
        <mxCell id="kaL9XtYEf6eWF3hwznRp-25" style="edgeStyle=orthogonalEdgeStyle;rounded=0;orthogonalLoop=1;jettySize=auto;html=1;entryX=1;entryY=0.5;entryDx=0;entryDy=0;entryPerimeter=0;" parent="UEzPUAAOIrF-is8g5C7q-74" edge="1">
          <mxGeometry relative="1" as="geometry">
            <mxPoint x="394" y="105" as="sourcePoint" />
            <mxPoint x="331" y="105" as="targetPoint" />
          </mxGeometry>
        </mxCell>
        <mxCell id="kaL9XtYEf6eWF3hwznRp-26" style="edgeStyle=orthogonalEdgeStyle;rounded=0;orthogonalLoop=1;jettySize=auto;html=1;" parent="UEzPUAAOIrF-is8g5C7q-74" edge="1">
          <mxGeometry relative="1" as="geometry">
            <mxPoint x="331" y="78" as="sourcePoint" />
            <mxPoint x="394" y="78" as="targetPoint" />
          </mxGeometry>
        </mxCell>
        <mxCell id="kaL9XtYEf6eWF3hwznRp-38" value="" style="rounded=0;whiteSpace=wrap;html=1;fontColor=default;strokeColor=none;" parent="UEzPUAAOIrF-is8g5C7q-74" vertex="1">
          <mxGeometry x="144" y="43" width="14" height="12" as="geometry" />
        </mxCell>
        <mxCell id="NUd4dRAfjlIAVgsjIccQ-16" style="edgeStyle=orthogonalEdgeStyle;rounded=0;orthogonalLoop=1;jettySize=auto;html=1;entryX=0.75;entryY=0;entryDx=0;entryDy=0;entryPerimeter=0;" edge="1" parent="UEzPUAAOIrF-is8g5C7q-74">
          <mxGeometry relative="1" as="geometry">
            <mxPoint x="203.51724137931046" y="136" as="sourcePoint" />
            <mxPoint x="203.49999999999977" y="173.0000000000001" as="targetPoint" />
            <Array as="points">
              <mxPoint x="204" y="156" />
            </Array>
          </mxGeometry>
        </mxCell>
        <mxCell id="kaL9XtYEf6eWF3hwznRp-1" value="&lt;b&gt;&lt;font style=&quot;font-size: 14px;&quot;&gt;API Gateway&lt;/font&gt;&lt;/b&gt;" style="sketch=0;points=[[0,0,0],[0.25,0,0],[0.5,0,0],[0.75,0,0],[1,0,0],[0,1,0],[0.25,1,0],[0.5,1,0],[0.75,1,0],[1,1,0],[0,0.25,0],[0,0.5,0],[0,0.75,0],[1,0.25,0],[1,0.5,0],[1,0.75,0]];outlineConnect=0;fontColor=#232F3E;gradientColor=#FF4F8B;gradientDirection=north;fillColor=#BC1356;strokeColor=#ffffff;dashed=0;verticalLabelPosition=top;verticalAlign=bottom;align=center;html=1;fontSize=12;fontStyle=0;aspect=fixed;shape=mxgraph.aws4.resourceIcon;resIcon=mxgraph.aws4.api_gateway;labelPosition=center;" parent="UEzPUAAOIrF-is8g5C7q-74" vertex="1">
          <mxGeometry x="142" y="58" width="78" height="78" as="geometry" />
        </mxCell>
        <mxCell id="NUd4dRAfjlIAVgsjIccQ-2" value="Route53" style="sketch=0;points=[[0,0,0],[0.25,0,0],[0.5,0,0],[0.75,0,0],[1,0,0],[0,1,0],[0.25,1,0],[0.5,1,0],[0.75,1,0],[1,1,0],[0,0.25,0],[0,0.5,0],[0,0.75,0],[1,0.25,0],[1,0.5,0],[1,0.75,0]];outlineConnect=0;fontColor=#232F3E;fillColor=#8C4FFF;strokeColor=#ffffff;dashed=0;verticalLabelPosition=top;verticalAlign=bottom;align=center;html=1;fontSize=14;fontStyle=1;aspect=fixed;shape=mxgraph.aws4.resourceIcon;resIcon=mxgraph.aws4.route_53;labelPosition=center;" vertex="1" parent="UEzPUAAOIrF-is8g5C7q-74">
          <mxGeometry x="33" y="58" width="78" height="78" as="geometry" />
        </mxCell>
        <mxCell id="NUd4dRAfjlIAVgsjIccQ-10" style="edgeStyle=orthogonalEdgeStyle;rounded=0;orthogonalLoop=1;jettySize=auto;html=1;" edge="1" parent="UEzPUAAOIrF-is8g5C7q-74" source="NUd4dRAfjlIAVgsjIccQ-5" target="NUd4dRAfjlIAVgsjIccQ-2">
          <mxGeometry relative="1" as="geometry" />
        </mxCell>
        <mxCell id="NUd4dRAfjlIAVgsjIccQ-5" value="Certificate &lt;br&gt;Manager" style="sketch=0;points=[[0,0,0],[0.25,0,0],[0.5,0,0],[0.75,0,0],[1,0,0],[0,1,0],[0.25,1,0],[0.5,1,0],[0.75,1,0],[1,1,0],[0,0.25,0],[0,0.5,0],[0,0.75,0],[1,0.25,0],[1,0.5,0],[1,0.75,0]];outlineConnect=0;fontColor=#232F3E;fillColor=#DD344C;strokeColor=#ffffff;dashed=0;verticalLabelPosition=bottom;verticalAlign=top;align=center;html=1;fontSize=14;fontStyle=1;aspect=fixed;shape=mxgraph.aws4.resourceIcon;resIcon=mxgraph.aws4.certificate_manager_3;" vertex="1" parent="UEzPUAAOIrF-is8g5C7q-74">
          <mxGeometry x="33" y="173" width="78" height="78" as="geometry" />
        </mxCell>
        <mxCell id="NUd4dRAfjlIAVgsjIccQ-7" style="edgeStyle=orthogonalEdgeStyle;rounded=0;orthogonalLoop=1;jettySize=auto;html=1;entryX=0;entryY=0.5;entryDx=0;entryDy=0;entryPerimeter=0;" edge="1" parent="UEzPUAAOIrF-is8g5C7q-74" source="NUd4dRAfjlIAVgsjIccQ-2" target="kaL9XtYEf6eWF3hwznRp-1">
          <mxGeometry relative="1" as="geometry" />
        </mxCell>
        <mxCell id="NUd4dRAfjlIAVgsjIccQ-13" value="&lt;font style=&quot;font-size: 14px;&quot;&gt;&lt;b&gt;CloudWatch&lt;br&gt;Logs&lt;br&gt;&lt;/b&gt;&lt;/font&gt;" style="sketch=0;points=[[0,0,0],[0.25,0,0],[0.5,0,0],[0.75,0,0],[1,0,0],[0,1,0],[0.25,1,0],[0.5,1,0],[0.75,1,0],[1,1,0],[0,0.25,0],[0,0.5,0],[0,0.75,0],[1,0.25,0],[1,0.5,0],[1,0.75,0]];points=[[0,0,0],[0.25,0,0],[0.5,0,0],[0.75,0,0],[1,0,0],[0,1,0],[0.25,1,0],[0.5,1,0],[0.75,1,0],[1,1,0],[0,0.25,0],[0,0.5,0],[0,0.75,0],[1,0.25,0],[1,0.5,0],[1,0.75,0]];outlineConnect=0;fontColor=#232F3E;fillColor=#E7157B;strokeColor=#ffffff;dashed=0;verticalLabelPosition=bottom;verticalAlign=top;align=center;html=1;fontSize=12;fontStyle=0;aspect=fixed;shape=mxgraph.aws4.resourceIcon;resIcon=mxgraph.aws4.cloudwatch_2;" vertex="1" parent="UEzPUAAOIrF-is8g5C7q-74">
          <mxGeometry x="144" y="173" width="78" height="78" as="geometry" />
        </mxCell>
        <mxCell id="NUd4dRAfjlIAVgsjIccQ-19" value="&lt;b style=&quot;border-color: var(--border-color); color: rgb(0, 0, 0); font-family: Helvetica; font-style: normal; font-variant-ligatures: normal; font-variant-caps: normal; letter-spacing: normal; orphans: 2; text-align: center; text-indent: 0px; text-transform: none; widows: 2; word-spacing: 0px; -webkit-text-stroke-width: 0px; background-color: rgb(255, 255, 255); text-decoration-thickness: initial; text-decoration-style: initial; text-decoration-color: initial;&quot;&gt;&lt;font style=&quot;font-size: 12px;&quot;&gt;Auth Guard&lt;/font&gt;&lt;/b&gt;" style="edgeStyle=orthogonalEdgeStyle;rounded=0;orthogonalLoop=1;jettySize=auto;html=1;entryX=0.25;entryY=1;entryDx=0;entryDy=0;entryPerimeter=0;" edge="1" parent="UEzPUAAOIrF-is8g5C7q-74">
          <mxGeometry x="0.2806" y="15" relative="1" as="geometry">
            <mxPoint x="173.9655172413793" y="135.9999999999999" as="sourcePoint" />
            <mxPoint x="161.50000000000023" y="135.9999999999999" as="targetPoint" />
            <Array as="points">
              <mxPoint x="174" y="152" />
              <mxPoint x="161" y="152" />
            </Array>
            <mxPoint x="4" y="10" as="offset" />
          </mxGeometry>
        </mxCell>
        <mxCell id="NUd4dRAfjlIAVgsjIccQ-8" style="edgeStyle=orthogonalEdgeStyle;rounded=0;orthogonalLoop=1;jettySize=auto;html=1;" edge="1" parent="1" source="kaL9XtYEf6eWF3hwznRp-8" target="NUd4dRAfjlIAVgsjIccQ-2">
          <mxGeometry relative="1" as="geometry" />
        </mxCell>
        <mxCell id="kaL9XtYEf6eWF3hwznRp-8" value="GitHub Actions &lt;br style=&quot;font-size: 14px;&quot;&gt;Pipeline" style="shape=image;html=1;verticalAlign=bottom;verticalLabelPosition=top;labelBackgroundColor=#ffffff;imageAspect=0;aspect=fixed;image=https://cdn4.iconfinder.com/data/icons/ionicons/512/icon-social-github-128.png;fontSize=14;fontStyle=1;labelPosition=center;align=center;" parent="1" vertex="1">
          <mxGeometry x="53" y="247" width="60" height="60" as="geometry" />
        </mxCell>
        <mxCell id="kaL9XtYEf6eWF3hwznRp-27" value="" style="shape=image;verticalLabelPosition=bottom;labelBackgroundColor=default;verticalAlign=top;aspect=fixed;imageAspect=0;image=https://www.testautomatisierung.org/wp-content/uploads/SonarQube-logo-black-128-px.png;" parent="1" vertex="1">
          <mxGeometry x="545" y="206" width="175" height="53.98" as="geometry" />
        </mxCell>
        <mxCell id="kaL9XtYEf6eWF3hwznRp-30" value="" style="shape=image;verticalLabelPosition=bottom;labelBackgroundColor=default;verticalAlign=top;aspect=fixed;imageAspect=0;image=data:image/png,iVBORw0KGgoAAAANSUhEUgAAA2YAAAEgCAMAAADolZCUAAADAFBMVEUAAABBv0cAAABBv0ZCv046vzwAAABBv0dBv0cAAABBv0cAAAAAAABAv0YAAABAv0YAAAAAAABAv0cAAAAAAABAv0VBv0dAv0YAAAAAAABDv0kAAABBv0cAAABAv0ZBv0cAAAAAAABAv0ZBv0cAAAAAAABBv0cAAABBv0cAAABBv0UAAAAAAABBv0cAAABBv0cAAABBv0cAAAAAAAAAAABBv0cAAABBv0cAAABBv0cAAABAv0dBv0cAAAAAAABBv0dBv0cAAAAAAABBv0YAAABBv0cAAABBv0cAAABBv0cAAABBv0dAv0cAAABBv0cAAABBv0cAAABBv0YAAABBv0cAAABBv0cAAAAAAABAv0cAAABBv0dCv0gAAABBv0cAAABBv0cAAABBv0cAAABBv0YAAABBv0cAAAAAAABBv0dBv0cAAABBv0cAAABBv0cAAAAAAABCv0hBv0cAAAAAAABBv0cAAABBv0dBv0cAAABCv0gAAABBv0cAAAAAAABBv0cAAABBv0cAAAAAAAAAAABBv0cAAABBv0cAAAAAAABBv0cAAAAAAABBv0cAAABBv0cAAABBv0cAAABBv0YAAABBv0cAAABBv0cAAAAAAABBv0cAAABBv0cAAABBv0dBv0cAAABBv0cAAAAAAABBv0cAAAAAAABBv0cAAABBv0YAAABBv0cAAAAAAABBv0cAAABBv0dBv0cAAABBv0cAAABBv0ZBv0YAAABBv0cAAABBv0cAAABBv0cAAABBv0dBv0cAAABBv0cAAABBv0cAAABBv0ZBv0cAAABBv0cAAAAAAAAAAABBv0YAAABBv0YAAABBv0dBv0dBv0cAAABBv0cAAABBv0cAAAAAAABBv0dBv0cAAABBv0dBv0cAAABBv0cAAAAAAABBv0cAAABBv0cAAABBv0cAAAAAAABBv0dBv0cAAAAAAABBv0cAAABBv0cAAABBv0dBv0cAAABBv0cAAABBv0cAAABBv0cAAABBv0cAAABBv0cAAABBv0cAAACsjRWxAAAA/nRSTlMAAQECAgICAgMDBAQFBQYGBwgICQsLDQ4OEBEREhMTFRUWFxgZGhscHR0fHyAgISIjJCQlJycoKSsrLS0vLzExMzQ1NTc3OTo8PT4+QEFDQ0ZGSEhKS0xMTU9QUlJTVFZXWVpbXF1eX2BgY2VmaGlpbGxubnFxc3R1dnd5eXp7fH1/f4CDg4SHh4qLjY6PkZKTlZaXmZqbnZ6foKCio6Smpqmpq6ysra+wsbKys7S0tba4uLq7vL29v8DCw8TGx8nJzMzNzs/Q0dLT1NXV1tbX2Nrb3N3e3+Dh4ePk5Obm5+jp6err7O3t7u7w8PLy9PX29/n5+vr7+/z8/f3+/jnidIUAAAAJcEhZcwAACxMAAAsTAQCanBgAACAASURBVHic7Z15gBTF9cdf95I5d7lRFEWRQzQRg3KqURBQPFDxitEoxltUoihGg/6It6J4EE8MgnigGKOoEeUQVIyAByA3RoMHeMDKwu7OPd2/qj6mX3X3HAszszO77/NHgrPVVdXd9e1Xx6tXAARBEARBEARBEARBEARBEARBEARBEARBEARBEARBEARBEARBEARBEARBEARBEARBEARBEARBEARBEARBEARBEARBEARBEARBEARBEARBEARBEARBEARBEARBEARBEARBEARBELuGJHl9Pp/XK+l4vfp/NHa1CKLJ4Au0cheU1CrgK3JdCKLpweyWl0tM6tBz4KA/jL76nkmce64effaggT064BQEQewKFVUVTEbQ4fjRdz0/f+MORWTHhvnP3nXlkLY8pZenJAiigbDBGPvfPYbc9Prq7ZqsEhFGTIf/M6H9Wr32lXHHcLPmo5EaQTQMn5eZsa4XTvpUV1hdKBJT7MQioTpda/+ZdGFnlt5LAzWCyBmul7anPLGBiSjBbFci4ZCYSUL7O5Pc6ikntAIp4G3sqhNEeeBjvb9D/7JESSiRuvQCE+xaKMZSfzj2UNbXJItGEFnhluyov3/FZBNz9hMzKC3CrvjfE0cynZFFI4iMeL3QYtC0kJIINURjptISys4pR0k8E4Ig0uFtAb2f2a4oLhMeuQqtekp/mgshiLQwdew9sVqJRHZJYzrs4up79tbGdwRB2JF8IF2ymnUXc5v2SAe/fvVFAGTQCMIBU9mhryiJWCaRJRLawnQk0xQ/6zqyPF7pCz5yDCEIEdbLG70l3ZiMq8sprATXWxqhKVsuAYlmQggC44N9nmHycFVNxOhGhkKffzR7yj8Yb360MhQyuoiuwkzElNg/9qOOI0FYsA7jsC8Ut0GZ5uKh7Fy78InrTuvboa3hIVxR1XaP/qePfWzuhjotjYvUEiHl82FFmQmRKkwktx/tFL5CBOGG1wdXVrupLMLXnLe/PuGUnr9yvVA6+LRb3tyhJ3R2KZWfLoMAzTgSBMcLgXvc+ov8py1vjukRYGmkgE/cLM23Uwe4aajqesnrPytucyes5zixCgpuPvY85GCDDtaPB6R+FDmkJ3VkicbAC62eVRxDrEQokVAWjuvLU/gCaTZuSl599/TAcQu5B6RdaLGI8o+2UNiJEC9cV/3t9zpnWmXNTP0o8O3PSw4AMrBE0amAA95xUUhM2fn66R34jpgs+8h4YBAJ2p72ZsTpBMk6jrP3LKw988ItilnsBdacyzuK69RMTPlvV5IZUXR8sPd7SsjWGpnq6l4+GXLe2OJlQzDfCc/HuK5E6pQ39yyoPfPCTay6HCXxR0tm/zZ+tBFRNpLMiKLjhQPmKnZtMJXNPUFiXcLcGyRP+6tT5jp1FlHe61lIe+aFv6YMF5LZ22TNiJLB62LLWNfvi8t2YeMY98u/cjWf+BAIKf/uUECdkcyIUkeCznPtKoskYg8dAN5dWPGS2DVdH3MYtBAfnxWsaWeVGXUaicZFgrbP2lTGbNHKM6HFrs56+1rA2SvtEyp1ysyqgsXjIWtGlDas6T+i1InNMKI8fwDsxv5nrw/2e96+CBdSHilY284ms7qN/0Vs/P79/dJURQur7PyTJPlcf3dcSlt/CFd8MM72zU8k6ibsbjQPH/xqQsTmwR9TxkEgT7W2kVlmMeXzPXp0xexnDhO9Ovp/SJKbSvgKvPGz15du6VDymXfWIuDzIvJ0g0R5E4CzdyqCHCLKt2fu/v4VZtD+uEWcvYwpO04pkM6yyWxJLv7LmiZ6DjrqmM5V1o/656aqxzHHHDNwnxbsnxXOnPQ0bQ9mlx65d5Xjz0SzxwuHrhWNGfv0D8mLE6IPhq22Z/1Fz8L0G7PLLCAJaH+WoMeY6zhj+eyMV5KOfOj9DT9v2bLylFQWTHq+YbfNXrJ2y5afvl258DEeidKuM5Zb25MnvrNk409bfvp+xUez77kuxdjRhbhbosyQIPC6KIWQ8mmPPJmcAPReLc6tRJRXChOWeNesmQ9O2sEteUw5j+upxxS9z6z8PMhILnlhzysX4v608v2kgSD2HL3Q9sr3FdfNQwnlfwW4WaLc8MEEe8duyaF52yDmg/5LRBFHlL8WZPvZrsrshO1KjE/wPwRVcBJf7YvEYiHl+6OM5Mwgc5ElrGjmbLhZ/VcJfyp80Pc9HmfPShNLrRzElK8KcLNEmeGD47cL3+GIsqRnHr2ifND7C0HGCWX7oEJ4Xe2GzDRr9hHA6dsNyxtTVh+g1ZH1Dq/cYXenZpJTXt7HWmlneWwx0vDQy8LsKtMvyYwAaDVfsDasPR6c10mKAPRfbSvhvbZ5zN9k92TGuoI9+n9rfg9iygp9Ib0CxoQcLmg8uLLydgdziCnBoauNNHr51uxqoi5BnUaCi2CCoIGE8tXAPNsaHwz8SrCXfFY//93G3ZWZcsErKUFFlIXQQvvrH2Jm1ROCpWJDTKvgmYYRTCihlfPnb8Bj0cS3C2/L+60SZYYPjtyCZcaGHSfnfcI9AKfvEAvZ0j//3cbdkxljY7XxFYiEdipz+VPwQs/VKQNnCMx0bAkpE/QMfXDyTt1+xZT/nM3s9B6X/E8vM6H8d9JlB5OvCSHBM0KfKKZcVwBD44MxtuHfM/lvfNll1rYKETCrlpKZ9n8JTUYR5VmeA3eOCZm2TPni+YkPza02u4Qx5dve2vDMC5P0RDFl7aEQ8Pkq4OSIkd9Xe4DUgoKONHe8cLqt/f+9ELMTkgRPiNP6sdPz7qu/29aM2Su+qWDnirffnL1yIvuLBL23pz4/X1xQxXXX8yHDdLFn9Rj/VkjQYaFZxC3Aj+aWfDBF/3YllLGF8nkhygcJWi3EvbmI8v7eBdl6WQF7f4StZkR5B/JtzzLLjPWGX5n9usWbU/Q5DmzNuFI23DKoa0CS9usKvLN7j5EjM1S9+SmkfBr/uoSePqH8xMMcSLBftW4HlR1H6vfERnT6RyWivEkyIwJwCXbuZU2xIFPtwDWgrwKbJSWU8/LdOW2Qh35C+fYAp8wSyqQOlvolqHpPMbt/ZxteMd4qmGZOKGodbAl6mBdvMQr1wSD9ZmPKp3vQ0Ky5w/o774nG7K8FCyPgg1uwOYsp/+mQ5waYTWaJEKJOWd3ZIbOEMoHHDvJKPKqJtjCt2ymWwztVZm29MMQoJKTMTCezISmZFXCDHVEeeOEiUWXvtC1Yo5Bgz4VYZ9w+5FfSDbRmG/azyyyiTBEcOQPs8YQMQY1JZci+Tf8xx2Ire3CnKxeZHVNtyOxzklmzxwvYmCW483zhYhf64DS8DYAZiCJbs2wyY13mvoLyuReaJjPWxT3NGmNJ8JjxM+9j833i5qJZ9X7m2OwkvS/OrFm+bTZRbvjg7IjQ8B8raKh7L0wRRL0zz6JuUJCCmFNmLsI3Fjtiyrdona8KrjO2wEb0EdseKafNK3Ux8lB2xhTIXDo9oJkj8XYfQu3+5wLtUDHwQu+fkapD+nx4PvNvkDXbaJdZRLlNqJAE0kxdZhHl8/2wzC4xHludcgHTVWpxLaLM9kKAAXt+bir3LpJZM8cLfauFZl/oJhGAuwRZb8+nh3IOUyA7MJGV9imQiDJaqA+W2XtVlgIDcKa+ks1uhjuNBeBsY7o2wR4hn+Fv9UyqzKOoz9jM8cI4NCcRU/7bu+DRtw/ZiExLTBlbRJnFlJW9jzoS0d/c55JeZuZcR0RZ2NZdZrdBBf/DOymfxveuvuCCsUuM5xpSpuXx/ojyRPpIGJlNLPhKqg8mCTL7UHPPzRe76wXilFngTVNm77XCMjs9YcpsAvdlqYAhPxteH8hri1/2Vd8Cf7mIUscLJwsBQLYXdmTGkaD3DqtA1ms8Pp+tsKFBCvQ/59ZpXNLZ+lMALjA6ifrYjJd8gbn2Hqurq9PPrYrFlB0X0sisuRNgpsXqM0aUfxRlFPEEKjOUXwOab2vGmGbONG7sjadArjZmGk2Z8cWK1YJvaIKfa7ox/36bRJmheYCkmnwippxchC9vgHsqp5pjRHk7n8vheZeZ15yySSihk6yLvTDR/Dl2QiqSwcCVSkw7g5vHKOB/3v5ED7JlzR4fDKlTUIufXzgHEAvNVdnSthI5Ko8tMe8yC6CZ+9EpuytB1Wy0nGZsOTt+obE3VL+xHQsnDgQalxE+1vWxZtdjym1FcSW3fN71hn11Hpti3mVm+TTy7WcmEnRN/Tpfnxnxwkl8b2xC2fLXcY9Memji1af13cMI+Ug0d2ZaDV7zMyrG0EyCY1AM8Zgys5Q7jRK0TdneHX3NeHJVcJtRjB4MSwv1+D+eLoFjL+R4HhzRxGm7xeozJpSFxSrW+yEu9qs8xt7J/xQIX08395u9UgVVPp8vEICB35s+kDH97F0fE17E8GlsxTdmt2rVqkrbRU00c7xwguCbP6FIA4kKHBQyoewclr9y8y8zCXpXp57QM531vdKDPkpJ71M9WRW8bvS/x7UQ3bUacvwi0QTxwU3C2vQJRZKZD05BG0nzuom/ABP6EjyEQspN/OOZZ46elnJQiyhX6uktmYXmThr3F4OLTju0heY4SjRfAvAPy6rElJVdiyQzL/T4whoThpRnIG/HOhRAZl44NOUeFuMhryJK6gzSkPK24RoSgEeEMI3GJyT08+pJQ6Bgx7kRpQ97+fMtmYWU5/MemSNdwS1SQQ21gt/MX8EFkBn760Up4xsLaeIx/4tvNqswCh4WM8QXCsVM9GTTetLiWfNFC0CIjMpd+TMqWaiCeyyZxZTV+fPSL4TM2A8TrCNH+UY1s+aJHRekUnttIWVTiZn1+6IvuYI0W6wlIUUPuFu0AEw+uExBJVcPytvXviAyY7Z2AvuTTURMPjvRI/O2gDHfup4Hk6hTFlKYgmZLAM6zZiISys9HFc1jwQsD0S63iHJm3gSOZYbCZv2bWSPtSPfMJ8IkEiF3mVXAJd9rh1MgkSWUFcg3jamo923fux+7pNQpEyiGXHMlkHJ/1T70G4r5xW2LAuqHlKvzb83EdYK52ayZGdnO3Zrx4KaHPKGtMSaMTmNC2XjXnlZSHxw8zdj5Yn65EolYJDUf+f7eZM6aKRV4IzPf+FW8eWcJPsSjwgl5G7p44e+mzLb3t1r2lNWffs74dO3LriV5YdCHK/QUGy5wTcHn5Pvf8k4qMM+WmWN6ool6CY7fyBWoxMSeZSI1Q5m/fjFRXvDoTGg+/+WiyuwVS2aRPAYE8ZlxulgneB8r17YdDNI5nHjNBHuk69zxI3ADB5w0eux114274Kg9WwBYx8D7YMgW7YuVUEIf3XXRKSczTjpvzD1vm3FPIsqF5EPcPJHA9wqW2aSiyuwRLLNn8pWvFw75ypTZynxlauITXfct6yRBh/la9zuh/O8StMVagiPfy9gXJZo+TGavY5kVy9WKU5FyFNSKnrvbHSqvz+uVJF8rlq+5SPwsMpH27dJOsibQE3l1KmyHTp9mxgE5GXw+r4mvCgaRzJo5EuzxOW7rY4rYELwwGns1LmmVr2z/WJ3qphXvfvgez5iiR9cJCP6M0Flfmczvbh+ijJBgzy/wMSj5jrOdCS9cgmX20e7JjLXsCQ+dd3yP/uc9Y0Y2YYOkY4o26SDBy5qYdiq3iCv8Xuhtir4Y+9KJEoTJbCWW2R+KKrPL8iuzl81eW+oYzZnFch3j5fzLsGZPsD6jWSrvx8JD2h8Syk+FDsxHlChNSGYSPG+clWn5QV1QPPMhGbtjE8qO40HyVvGgw1X8mJi2E2PFFz1RUjQpmSFXZL2Tls8t2dlIuTMmlG/H7G3+2qH/mLVm5MbEeeQF0kxpwjKrUz7tUVSZDTHmklifdcW0W8aOGzt24pT3qk3rGlGmUZexucJkthrL7LzynQIRZJaIxZSvji+m9ZCgxUzDbS2BvED0g+K55/B8Oq6z2SJBh/fxhP5fiiqzMTjWz5JWu9UMJR46aIe2wStSx4+RevvQ4lqPChi4UTE2obEa8IqE6gyRsf97J7/HcRDlBPsGv1wiy9P/2r1vvWjNQiuubFXsZu2FYzZoTvs2uPNwZFIHUlnzRevqIJk9VFRnq7/n09lKgtOn/GvJCsbCmRNPadUI0RF90HOa5tQYCUU0QqGIFhq1etog8NKezmYMjyWDPPRfL6rMZmOZPZKPoUvnHl279ujAM2+MUFJekI5/Yott52f1O2MHBoAiWzVreGhBJLPPiyozNMkZUm7Z7aJ9pveFt6qROmjcG7LDybc8Mfu9D99///0P//363286vTPYHY6JZkcVjMbbOjd2LqLbRGe00bhOuSQP84K6V28jGg7J8P8IdGjbtm0HQ1xecrFq7gTgDzhIQfWwovlNeOGEHZbMIsrpTWXx1uurMsyqryrgo94iwTuNg1DInYRyZdEae4DZUbRit+XIpuRXm30/DdGc8ELXldZERJ1yTxEDyD1idVcjyqf70Yw30VRhn9y5OBzq64FihUPlBzqjcKizKSwv0XQJ4ONpE8r3hxYpaKcX+n6LI+48UjQzShBFxwdjUGDBiHJa0Y6qOBN5+ibyGD+OIEoOCQYK5/lNKlqncSK2ojjSG0E0PVqhqKQJ5fNiFVu1Ehe7oVjFEkTjMEU4z++kovQavXB8BBvR/EVpJIgSxAeXoEFShPUaizEXEbDO5dNKvYim84mmjA+OEo6M+M8+RWjxXthvhXCwfH+SGdGUYZ212cichfAhKgUjABchYxZSZhdruY4gGoeAcPZdTHmlKIWiTTBMcDcVqKcqe5zIbgld0mlpXRO7ZpsuB5cL5IZks2v3gy8JWkk8Hr8zee4343FcC7LfylH2+F1SpL9P16drS5z9bWW5/1JBgv6o18iENqzgHTgen8YqsajHqjUUf6V70ykXglrtPZ7WbdroNyIH83g/Hr+Wpcffpk2l3t79wQZcLgcrg2Wikt2HHz+NTcsTBXcf9sGzggF9s1Aqa9+9m53u+7u82GAXZ0KetjVoiWXbJ7Oda2rXHDo569G9nZFNxxyyYVVAdHK5n47pb5+bC3+/kbc/uWDRppptixfNuu+KYzvy2xES7Z/r3XTvImiIPxW52/CrHn5t0dKamnUL3n3q+lN7sawd9qW1+8M1cxONpHCL3bu4fRNknCbT/ZcUXrgSDZRiypZCh8S2zp81SizQiUR+eHj9J8tFPls1rxPY2oEHer27yp5Q4903pj94xbGttbxQ8ovXfOaW2skn6yd7eKu+9utl1m9rLtVy88Od61wLFaq7ZgSYLU2G9i86rlj2JS8hzf3L0On6f/6oJlWL2g/uG8x6elZHD9q/lr0aesVXzfstWM2eWbLKkVOXR1XM189d0dGwcdZbOHHTUrf8ls557el7L+3Dk6Qu8MAN6Nl+tvzjoWAXmgd+PW9VKs1nq64CP5QDXui5ERkX7l9YUL9GSYJ/CI5WGw8ozASIHxapYitgJNXD7W/OA/02qXF7whQ1654c0QZ9o1lTEFpuBqLqa34uszvUcOq3uHojBLXaPZWh0FRtz0nV1gOHfem4Iq5+vK+jJZrp9xq/mSUJh6PxeJIRj0fDrOK1s35n3Y0MHZdnr4ZR1DcDAAkieNYCdmGS5x43co+zCq+7cS+hQkE4S61Pf4M1y+7o40/VxwMjxec3Hiodb3Wk9TSTau2xaW6/5PDhgCBcaEMKOlQSl6aVOmViYaynB7qtUcNxG1H1906Z9fnSmVBLHK6v54qKLjjHL/tTya9Vo26pndSrszRr9je1NvVbWL3ekNmj7oWKtT0rVVs/DK9N2guOJmv6ubYzOQgjl6vJeFjUEFMF+3CMb2PqhclsWfZqGBX/uh+qTK8ZLOdwVPjgsOKSSXXxcEAzLVxmte4ZhuujXCk1Tw42e46sOuvRw61VXwT7RInMPlr11vNZVjaDOx8MqxY6cW8WdHpdgn8j45lQfh5SGJn54egfnWYnrt7sIrOv03/RtQ+1qs7oYl7mgetzt2a6zG4XrJkps8dzsWbWRyEIo1A2VhFD3XpNrHFeX69G3erJpKq+0QlS7fqznK3ZppTMgjDiSyYH1ypH1ZobUJUyWzNVe7o1t8uGmmT2VKweSFxdd5DzI/KB9fij6t3pusylh884Z8Fo+AnlogLOggTgMmFiU3m5QIUF4U9q3EVmkxsmM/2quLrqaKPtNJbMuFF0k9nlbtbMDzfzSqfJNazO2d+Y3dklmfnh1O/Sa4fJ73ar8WeRmVaduDrD6Pryl4ZuMq4Ot31EZDjoFyyzkWUyNAPejRsmtvwV+xXMnlVAz7UKDn+tHF+gLmolG0M5329cXbQLMuPf6O8G6Bc2lswApjqHmiyL+1y+50G4Jr3KGGH1rfbaZbskMz+c+GOmi1hf7mZkhLPJTNP9S/qsrgcOxwPQqPo329vyMx2iKi3vXi5DM80TZBoenfGoiYWabKyAZ7DKIsrzBSqIPf6HXb7+zCy1sbXLXGTG3/jHexktoVFkJkPlPJcL4uprTpl54NhfMtcxrN6vZbwrMvPA/ktdnqxQ7dpTTSuTi8xUluJxXfYeeAN9TJLqPNutBdmQNmpd9XT5GDPeazx5p7BgnLigQD05H1yEDWdCiRXqDEvWLF9z+fon1R9/Z/sA5iYz1rAe1WbEGk1mHbe6lJtU17jcfNBNkeJltdpSwa7J7HGXBysQVReb6ya5ySyZVP+kKSbIHpZVn6S6dV/hKyJDOzR9HFevhYashzc2fHQm7ExZ3aMgXTkf9P1KNGbTCrV6IMO+q1waUFINn2X7AuYoM9YyB/MrG01mfdxT/OBYCNS6jFlyDquz+DzJLsjMA6dmlw2fivcYlclFZryz0JHfhwxH1+Lfk+cKb8sPg7elnn5S3dyrfGZAgHcbj9mJJtm5a6OvADFwJPC+qQjRr3ceWajFAw/0chVDlDXzSlvKnGTGrnwaGs+aeWCUe4raE23WmUnHvmCYjEdt84LMfPB+XcNlxm5nlr3L6MidVetLwwzlKDNWYWOh2b8cPd6wOll4W0G42Co8zrqU5aQyPgsySVg74xvP8t+Z88Ej2Giyf08s2FK4B45zbT/1bFQStKW0ySxpYr+2pjt7rVxm8STC1sAQ4YbILOlC3JKZH8a7qjup2v0g/HCuqLKkPhsSF36Mq9NBk+QnajTtzeBKRdVNfBLID0NrhYqkcheX0NhtatVyyCxNUUwzLXVzdjeqfVR91+bl8iTuMzoWZ0qcCuj5hTABGEvkPwpOAMYKKospnx5QQJm595z0pi+mTGfNkjaboDWdBlmzV/27ac1SXiBBmOqaPqreZ7POss2/hDforxd/sCrJFIGv3NqFdxsbYM00LxAP3CoYM577l1ruQj5h9S19ZTm9NYvbBnjJAfy9+OEMYeXshyPQV0SG9mushx9XB5eZzJikLhO6cwll59l51pkXLtyZSAhlXFg490k+0ejeLD/omFlmyR+/26yxLS7qiY9neDu7apuRQEf8Vm9Ff/umZmrO1qxGyNPgu20jLWu2wHXiIcyskm0aoPV3uN7M2kwdflCnTt2OfrhGvJ8ruLdGxwW/fIMKrBEyr8U3s/WTPnwOqPVSMXd1xgiWe/fB9wozNEl169HGnIYosxqztBqb6pPqjfrQ79fr0IMJq39CtyfDAOuCuLrMMSwteSR41mZqtp+Q121gARhSLSg5pjxbQHcTD8xxlRl7/78Vv4GizJLqD4ex5sfw/PriD4QsouoyfRVVtvBAmzlW82eZHwtB9Gc9/+wyi6t36IXasSrZxW1Gh1dqnrhC4YHhWI5JddsoMOoxYjNSAh9qBsWbkf3wf0KlnhZuRl9oO1zMveYqM/ej12Cd1TMV8+xFmfEp+JZ6UUeMXyeoPqq+ZPhUT0ePK6o+jO7Oj/1J69UHy2k6X8cLh/zXpoK1+Qxs74NhX9l0vKGQJ8XK4N4s2Y9Hi2/HITNThjK0eVL8Qtc4PJvY112U2WDHq89VZhn7P344YrPr/cTVNaJDkl+YEtd7un6+AdLPl3axzBY4nPs9Dpk5b+ZysfTbzdyDcGpYyP5J7QK7zJ4yu7gy9BO8lqPq0iCvTxCuRdkk1aWtsUuJtarGequjymo6XycAlyjCka5MB0flTWcBGPa92CtNJP5YQJ8uD/T6xn0IFWWf2czWLCUzP7RZhDOJqufbX2yxZBaEc1XnnIxWZPQ4ochKmIGKS6qfBM1mKnvkWXie7muH13F2mQWFvnhSXdM+JYIgPC3c5wetddWkk1lLPDnPL/iyl76U10vwRdWHbMbD7mQpM66u61ZuQzNOhRBuSpsI/P5MCOSjXycF4EzRljHJTSzkRgA/nIomxOrRa4urd+coM71xoz6S2RFCFEtmlfBn1FrDQu/s97hSrGv3rjBVN97KOAhX4RuttTsM5iSzV4UZinut3P18ySFpZb+1Y0aZ8T9NFiT7o97NkGGe8PO1qUoE4QxruBxX/1l+fUbgo7MO8+1S2H5hPk5xllrARTvFBbOIMrdVITcCBFmzjKfe1OJP8PzUC5mmQASZeeAgcTzuEEOxZIZdx+Lqa2iSIyxOa8vQcbEgM6QlDxxhGYpkXD3H/tHIKjMZ/B8IuVv74djfugkdiGi3LDJjo0hBT0Z9PNztGRUxI1XLIKtevZX+qnI0Znz4dKTYsWP/EboNpN3tOLLr7wrZVfZV34Ju0q6E+1JvJK7OeAnr6LOcZSYD7maxf93dSDJjzXtWqph69Wa0hBtVJ+P7Yb3ldfhufumHhdAe/Y3bZtumyRxk1v5jwZodgaotA/4mqaq2bp5RZgeh2UnWJT7fkNmxQiWWmTPDwkNgN3542c0z6njhbHF4piQiyrN77OYQKgB7P69EhHwTSt3pBVUZ6zpZ81VR9cZ7sRQ272+bmksrM9YkHsR9tUaU2V5LzeTcDL1lXRtXF2CbJPq4s5s9DGXsgeVYZpc3WGYe2He5kHsvQWaiK+XwLDJjmkWLFCmZybDvMlxGvemGVAIZKQAAGUBJREFUzMzld6jPOM/uA142+GCcdUiuLoiQsuSE3Tk/mfU5T1piV1lEGVPYgCPsDc5LvcGwehbaxZRUa4YLTTqzzO4tCZmxD39qqMluYPBkoa23Q+1NjGWAfHj1Py7fPWvmhwHf4KK/+7Ugs1kNlFm7d11kxgp5ULjkBqPX6IEzrPzD6t/KcmimUQETxd4d7zjW3RIA366No1iH03dbnU26LMu7CnyOGus6WdJhXZvhWGbqxcILyiQzPruMx2aNJ7Pj0O2s74JHL2p9r8wyS2vN8i6zfzZQZvACei8pmfF94knUKZ4O5tLcfWi8nRxZhtP5BlIFPKKEbKKIKfOHSLsyFcIvOf49noHNQD5W6MCMfhiM3si23wyoxYOZO0DsZmWS2TUlIjNrjpBJh7VDvEh8hqCkspEZ+/OjbjJjncP1grXuYm71XoQewtLycwGxqIC2MwUnYl1n2x/qynqODbNoEkvfc9J2W4eRx86aVlV4mZ2TaohR9ZOO3dfj5jW1ATL7c4nIzPqQc3fBocIU3c2ozDKSmcwjf7jIjJXylnB/x4G+z62f5cUSdfqYlRWS1GGmQxmxiPLV2H1A8ua8O0ZiaWG/cf9TIrY+KBuXPVNV8IOm+aSwNTR7AyrRICCqvttSnJsrB5lZw564+iAcvhlb5ydRi2sKMuNu33jdWn82QbgCr9D/qTyn80280OEZ+2CKiSOhfDq2A19ozkUhFTzV3n9dqV1nV9k0n1TwWN4y8mfnrxaew+4Pqw7Er6gcZCYjfXD3qS4fYynNaWLWTIY+KJ+4usCQmTUz4thWXX4wUzPJPj7ThbZ2wsESE5o3s9IkLxfZoRM2OEXGVXZPITaMOlmM+hd3AI4LklR/+Z0YRrjkZeaBg/AmgnMgiJbzmJQsj6cmIrN2C/CKxdfca1PYrRpnPZRyR5KkCTtFfxBOhP2yfcp5e3PnDZ/PVWuS16fN0+9z3pSf9QtsWSg7b4EsKs0PrVO9Km1mUeiFhNUzcL++DGTmhxFoE0ttL/7ZqLeu3Yz2ZGWR2SdW8NPaXVg3K47MNPdnPDXMfYQ9cEQy9QzCjs2sZYjkgwu3O3WWiLG+ZGzFI2fvyYUiBQI+a6zGxmK+gLaMLe1z5mMr63hi+/Usx58v3NWlgQYhQ79fLJnVHAcwEnmP88C/5dVpDMLlqWEJq2AbD4zHzRDPbTcFa8b+b2Qcv6/7NZn9yfLOV2ucz7n8YDo7YYVjgMaVFoopCeX758eefMivXK4L9Dzlumk/84BVjk4nV6myYlgRDikEw4s19Uo2dwc4DDmDO9yTcpfZvY0js0q4E7mOLdC2tOCNV1dhD6aMMpuzac06g1W/OPYbFH1CP43MZOi0TJizasc1OQNN589rV+ZDMx0fdH3ZpdfHxaL9GFk7d9ptl53Sfx/Jx5E6DzzpsgnT5q/W/+giUL4sMO2A4qiMvS1r/ZaHWJMhiLxa4+pbuTpb2dfN7NE5iyMz2QNTkePwdB6QYxv+2t+ZY6cRoHuv35j8+rft7U216NbsaWyUw5ZR5ns70VP9hZ8vElyPhtsPlPV0voVP+tW4ajeDpumoTv89tKP6J53qHfpiW6zO2Vc0RLZ9LLQo0nGBlUKz1AKGvotbx9ctUeLMzlb4NJd69dJG2Qhjcx3jy2RdBC29IKcEk0VmmSm2F4jgbGVuhNErgoILszQ8UsGxNdY4IPr7JtBn1PB6Ych8JeZi0AyjFrL/KRZxNWOaLiPKwkH52FOTE+wz+QaS2cM8hIUQhqb2N4J7UnqZtYQH0NaLuLi1SyuqGDLzQPc1aHV6FARlQJFy4niqMYvMMh8o25gyi6vrrHUWGfbdirsfj7OrxqMOivCdLHN80GFCtWOpWlSbRYZUTKvVd7Ut3sm3HujyCZr7vZaf63Mrdk9KngV4wJJ+IwzurbE0P/zO3u6KIjM//M6aAYmrI8DPY2Djz0a38rRmXdbjEfMiXFP5DVzOclbyS0K/uSmMzAx8FXDMy24T8w2C+4G8MrBopgy0wBk/oOHyCC4z7AWId+Rm2dbZaTEein/c0f56i2TNzkJfjU19+P2IsQJ+h6pcNjLz8K8HKm0GKs3PBsV4pfNoOHA5eqXnl7cLiA3JC4HzVrgsM+dOjF275I+tirNaZhBEsf6YFRjAz2kdjFoAD5eE3ZPSyswPJyL/HpdYbcWS2XjkocmFg12JebEXl6PM/LZ4+RejvMSoqzzw6aloSWNbnyYlM2bQvNDqpg2sc7hLSmNXJZSVYzuArzgzjAZ+uBzNf6/vzptlL9Q8uJdjLtaMqVPcQXW5Q0NFmgKx0vK687h1IwRDcGcZyizI53FQUIOag1BXQXMEQUe/TEenu4XVWXJT6jRyNBfgmzYqrkth2UTGuotrdZfjotZZhvvR158vunhg34/T9f7SxGn0+4MeWyyzr/dyvN28yexOaF0pgtVhbUvWGyr7bAgyexXN0ZW2zPQ4jR5/MAj+6UIPY7pQEvdgRNMjy7q9ir40/+c4krr84bFA2o5euFML+Z27xmLMkO1YeGUHbUNMsXkJvZOnQYvkmTZ2WjprJkOn28XIg/c6v6F5k1nGcPCVm9Dm/JuBh4TbV4hyvbj8rJl82AyUOhkXPeBYSb+3HEFYd/Gs1GyJtv29iUznC3grJGh72hPcvSMScl8Xs2ksFOHOIlNOawVQUbypDwPW4bAC2tYzcVTq8QVRUKTaE/GCriizrSMO6nNYrwHnXPqAEK6T9T5/42yxeZJZUl08+XGBR6eOMEXtgQHIdUw7CEyGNuJceBcrcSnLLKy+uFe/ww7rdeJZf54unPgZZgbZdpp7y6/xh2ROjfXvZU2ty5jC1wKkA8bM3aLoro3prVqC/Zkr8fu3R/fQ5lCKDzND1hlZcfUaLrNK7AUoBlx0xNDftpWxLS4evsA+t1e5eB7kSWZOonwdQs/AD+cmVeyhqUULFhwofkmFRC1tmalqLX+4W2uj4tON87lEsZ7YuUqAr6I1rQkQTEACCfqOnbbBsFd1oQiWW4IvWNdp47eEsnbKmENBynFzWt7xwHEoKmetdgp4UIjVKcRrSXsiTBirLGwc22ojbzKL14vUsM+D0ZiC6AyapLp5Lz384e3IOietAx1KXWbW/WKVOY+PYtdeLCx1on+d2oRlxk0Ts00tOp804V8bq011hUwMwSWq186ecEJniXuRNIrGQA+cgZqlccbksYLz8AxAC7ru55sJjSKqvubqrFpAa/ZnszFVIg/bpLrK+O0K1Ajr1VvNIU/Jy8zl6UajaKrUqksfHPvbul79rkuT7TQaeHX7FDjqytumvP7h2mrrjM9Q9cb/vD7ltksG+vR0jdFbNPDD/anXHVdXaY5IMuyLWl9cXdAuvcxcSKqPtndtrkWQmXA+ZpwfZqtdfmo99tF/uFw6ja4Pd5vL7jFbKNoU+pxWzrdUpkiSaaa8e/c8ctApJkOOPKSzHhSOJ2gsQ6aB47zzHe7aG8Tb/PmL3bcBMkuqS0fx1u5CEWTmgf2Xovt5wJDZgO+wmuaYsUHLUGb1rx3nJpxKtFQmPBi3MXLTxBuocgtFHAg0phUzYG9sAWqWT+oNwWNrAwMaYs1qL5fTTCEXRWZ9NqWSmufZyNBuKZ5qXNWlXGUWV5cfC0GXOvpheI2z1yjuFW8GMKvlwzTeYEzEA72scHFxc4sYDsHGG4gVGCmXTmP4jd+6t9YiyMwPI/gcgfnzCL0Av3DwS1LtlxJlmcmMT54+0M69ki4H9kaNADxEIyN8BflZc4bMRC/AWxsks6j6tfv0VlFkdjGaAUkO0H/mZ1GLB7+Uq8z4Wsmi7i619Lg9In5uVnMyZiVLEM8Ea47D/FcPnCi0IMsdPBeZsXZeM9KtvRZjCoTZYasPvNw4O4+fX4vdra4vX5mp8bD6wf7OanpgpNsjGtrU5xnLgyDciOL5/dLNDMD+G/TK+OamBsmMXbFpgEuDzZ/MkiJha90MLN8/a67DA+fihsr3rhqllZ/MNC8Pp4kSToBJFbnGEVqBaAxkeBLNf5tOwjLsiw6jjqvrUt0Uh8zC2vpwNCq+4Xp1TtD5gouxbtbSOs2Mz2Z7jPs5QjiCdF6ZTIEYy/DhuPh0o6wX79j9IMQKMdM9SCorBVjDfxd9/V8NmjJrk0YPaa1ZUhRaWD3fbXUnTzKr/0Vkm3kYpQztUx6Npoem9vNelkcZ/2yUicwswQiPPK5u6ud4cjzgUdR2lfOIUaIxkGH/Tejrf585whGDAqpWtDK7zGpfenoq47VPavngHLeERc7vaN489Cf3GtBPYEAn8/LheAxmLhrJ0PID3OC39jHHoKUss7i66vHp7OFOn7NOFY+sd4mByYMzbFZtalyfZsqXKC4yHITdI641vZC487B4OF3KPUn00P/OOIFy/+GTa1WB8HDHK86bzG5P13q4b5+Vf+2pVv4v4ILNP2SRWTDdjjajrGJthPEfdO5rKu44JtX1jggQ7PpFojkLo511RGPigXOs6fy4ZbREL8Bwas7AIbMf+2k7LD3sDyO+we0mqj5ayCAFfC8pxrjcD3emEpoemnrJ96H7iZtnWpa2NePbOttxhfPU4+Oia+MIF3N2t22eiN0myawU8MD1qFluG2q+Fj+cKpwl+EZlajTjvq3T4/fDGfhbGlXneYofcicIz6H5/FWtzRr44Sqh/T6gm4mMMpPh9scnmzw8dai9rsWzZrIn6IF7cXLWb3YJATEUi4yvZPejGZCSwIPOXGLNEk0oHo7UFFeXdcoiM1te/JovHaFeCi4zGWTsOma5QATxScysgOf0KcjyiaEvQ0c096u5dzhl1h5tEtd2v7o+JKLo+ME6tIcvj5lfPyaIpcJgpldqpSlDZKvhqCGwLuhZRQ+H6oGD1qDPxuOobkdvxdZ5gT60ySKzpWqttaOtkU+E8dtKW9PNZej7IB6cRdW7yZiVBDK0WYVk9ga0CRq0hnnCYGZ4dplpcVWtliBsujaLK7DMhHD5fKakpXE7LaGXpT8+IX64lkP5WDP21yPwRwwH9zYJwvlYZvyl0dCsFPBAv+9Qs0SHOPhhstCG/pxdZuyap4VIFsU/eIk3tLjloWl5fMkeFMGcW1o9TkEZyUz0GGD3eK5jhskP/Tbhb8lyp8EjGgM/nIuOxlLn3PvA/QYP3DtP8AJ8IAeZVcL9gszuL/oUSBBuwLGCpt6H7gcPbcKskZadzNrhZ4cOXkIV6rVOuJt9SWYlQSVcb/cccIUfq5pdZuL5ZlH1xYLFaUw/BfKo2+ZGB1Fjz0E5yUzwGGB/u94RflHY1MTja5LMSoMg3Iede5JxBG6Wce3YM07u55s1gsxkqJyD265wP3jVie850EsrV5nVqjeSzMoEJoMZOX39k+pmY6qxpK2ZDHutU10Cz7jcz2LDc59kRhQaGTp9LLzr9M2yZoTpnlTSMjsoh5vRit7WRi+NZEYUGvZefsjp668mTS/ckpYZ39qY4+3UHMFtOcmMKDweGJzTDIh+XrvhnlTSMrs+N5kxRvGiCyszDwzYRDIj+KHFucpshumeVNIym6zm0gfWl66DrjLD5/8W1pq9SjJrHnjsPt1pQe5JJSwzPz6bPiP8kMNKu8zi6mdd8mvNxGf1jSizl0hmzQMZXsz567/+18ZKU+nKTIY2y3P+bMzhDddxN4fnU2Yy7LVMuN1egszE2acTSWZNFRlWobGMsMpkW2lKJtXBht9E6crMA/3wlrdM9xPVDZfgasw9pFGgIBm6fY1ldukuyKw9Oo6R/WuwUO31wjjyWJBJZk0SGTo5giGlw3JPKl2Z+WFkbY73w8rmrrcytMQ7jsPqWVaFPDDUCivCPjPiwX2Qg8xYinmCzC63qs2e44+4rtFOJLMmCmtIOBTqqqdnCExdjtpBVB1f8p3GSrgKz+gsmirez4wvhfvRotH4sUexyjdLpjJuCTfjum5z1DW7zIKsU463OUzHz+oa3JFQv+tIMmui+OFSFfnn/038XPuF2XHeikp9CiQI92LXMVtE1iA8KjTha3jOQXgSCSGpbj7QfAhB6PiB9ae4uupAe5nZZeaHO3AnVv2hV2p3uowPEGWJ3g3qhZLMmhyVrFkiV6tRUOlBBOEcW2xDTgnLzOY6Fu0Gfnw/reFO9Fdj/4CfVVm4yxkeCPoZQZk9HNzhe9dxDksunUYchZU/EZ47f7Z+uBFPgPCYYjI0a5lVlDi7fmdBtD8sqdYMFV+KDIehM0aS6o+Ge1IJy6yjNdBKqptsAXd5GHPrfuLqazxUiQwDhIBcUXV6L9BOeOtyP/6dByp27jvJJjMZutWIuTy1v557mxsEV9Iw+8YFoVnLrMkiQ3AOOtZhayewyaJyK5aZHr+lhGXmge5foz7wvErxfjxwnPDZMOJeB/FkqybPqTdceuk1T61TxVC/ZziKzC4zlkbYMcBLfXjU0MFn3Lk4KhpRI6Bic5WZBF0njPtLCXPLaNjVE5xYs7S2OibVdc4UC4Q2YrgnlbDMjrYyj7JWby/8wG+Ett1NNyx3i44waDiG5bGupUt5WWXGA2qF7blHw6wWQoxmHgLIrz/B5ikzHwxTIkrpElNWwq6eReiHo2vR1/8lZ4rpKh7A36i7J5XsfjMPj1Bgtdxb7WlkWCNoR+sk+2GobRFAi1KeFKNpR42xk628rDIT9zNrOWm3H7cdOaB/wpqzzIYoO0Oly05lxW7I7AzrvZnnxyJ4M8JrSk/p7kmZZHZt48rMCoXKmugo5zrXa8Jn41qeCWu9roc2C7CaDnDTUPZOY1CYSElDXF3sMZM3V5k1ZWuGejRRvdWJfx8lTM294eqeJITcGYUmGaKsJ2Sj0FMgVpzIZNI8qBNn/bCQyf1aAi3waxbCLsFHc5OZDN02Z10xj6vnGveTQWbA/aJJZo3D7siMB85AYxlHs+RxF/GU9ie6e1ImmZ1Yg+fyFrW2GchCy2xpKpF2Zopjnet6wdjOMXfQPSr26xwk1U0HukQ8zEVmLNEN2cxZWH3BjI+ZSWaVcKvwt9vdQu6QzArC7sgM4C00A1LvOAucKQq5CMbVb3jHKbPMsLNTUv3MfoZdQWUmQ0drotEtHL4HThVktlhfCZNh/08ydhuTcXT2tpBfDjKTZXlG5pMBo+qalEtxZpndrFp2N6w+6jL1STIrDLsls5bfoBmQNS5eDvvjyMNxzasvk8zsU+Y/7FVMmQk+iLyL63GMNfsIbi1fGlX3w3HbMlicZNTllCM9vxxkxlfgFmSyZ1F1q3XqRGaZ3aji8HzTwTmYJpkVht2QmbZ2an395zmOT2X/+aoQsuyKLDKT4cBNwkDkN8WUmR/OTyKZPeUydOm2HlfdDG/C/jBys22VDIksnjr1zZFfLjLjX6tFxgSjk3hU3TbS6v1lklkQ/oQOOYurCxwvjGRWKHZDZh44Iym8UUcjCbLGbb30qDYXmUlmDDxlnnT0tQoqs0p2JVr0utXl2Kf2C4TB5lXWoW1HL1PjYRehRcNq/c0ONyvzqpxkxn7tMkNNhl3Gf8kw67riZ5BJZn4YIfQVtrp0P0hmhWE3ZMbd+aLmVqza1PmxiErWjupTu7XqtZlDJrMv1bD5W1TdjGWmRdBOXcBPRRMbHpPZW1aOUfVHd5nVoiwsmeGM3Y4RrIRH0ZVx55m8Mj9n20pRq45P3bIHOj1cr/ItachrPsl3qMUXDwe/+4EPHrhVqJTLh8pI6IErvtS2v1nZJ7X/VLc93BFfxWWGa/gkeikydFollOc44UxbpUulqC+jqMPaulmkdKnb9XUz7tGIvv7XO77+7P1jL8Ckuqodj0XfTwgjs62PILOrhO/7ctuRkjJgv3R8nhrK4g7Bmt1oyOxpIeM7ne1HyDup1h7rTBKEO9ONbtg4buhUbWiX1M+sr9cXkBdd3j6dyrQvAq7U9HQy4zrrdbsWQTIZxbn/8vhQ/kRxDdNbM5b7W4JT/1SnzMSQC0v3Lx+ZNWFrNv6NGS/oPPfijKOdr8QDR8x48bkXTF6crsms++MvpX577sWnuyElseHeCxYs09+JmcpQefs/Z6T+/tLTzqORZRiVqhVLMussYzPpNf+0KvLcP0c559dl6Hj/rNT9vDS1o9sdn4XynvHq34JWNuzG5D43zttkzeXV//Dx5BFtuETSIMP5s3ClHAuPKCmTaqdzpq7aasmy5ss3/nyQ9gehhke/hWr41rX42+eBc3F5sybb/b880OVR693MmHW/8+DcEsULA1cu/LB0ef/Tmbvs09gMydTq/Nxjv8vIK/52n8YN5x6uOfPmqaF6+NeizRGjbrxfy338pSdyDXjoYCSDwD57lzL77Lnrtybj7ViuzUlIYX7X3X5LkfGPjhyzlyln/DVD2dnv2JGL/So5XUG5ZZcld3C9JGOW4sN1XWTI/gwIorGR/cHKlhqV/vy3UtmTyj2YbsTXXJFKnMZ+PgRBEARBEARBEARBEARBEARBEARBEARBEARBEARBEARBEARBEARBEARBEARBEARBEARBEARBEARBEARBEARBEARBEARBEARBEARBEARBEARBEARBEARBEARBEARBEARBEARBEARBEARBEARBEARBEARBEARBEARBEARBEARBEARBEARBEARBEARBEARBEARBEARBEARBEARBEARBNBv+H0eCUJn+JipvAAAAAElFTkSuQmCC;" parent="1" vertex="1">
          <mxGeometry x="540" y="265" width="180" height="59.59" as="geometry" />
        </mxCell>
        <mxCell id="NUd4dRAfjlIAVgsjIccQ-12" value="&lt;div style=&quot;text-align: center;&quot;&gt;&lt;span style=&quot;font-size: 14px; background-color: rgb(255, 255, 255);&quot;&gt;&lt;b&gt;Resources&lt;/b&gt;&lt;/span&gt;&lt;/div&gt;" style="text;whiteSpace=wrap;html=1;" vertex="1" parent="1">
          <mxGeometry x="580.15" y="180.02" width="89.69" height="56" as="geometry" />
        </mxCell>
        <mxCell id="NUd4dRAfjlIAVgsjIccQ-20" style="edgeStyle=orthogonalEdgeStyle;rounded=0;orthogonalLoop=1;jettySize=auto;html=1;entryX=0.75;entryY=0;entryDx=0;entryDy=0;entryPerimeter=0;" edge="1" parent="1">
          <mxGeometry relative="1" as="geometry">
            <mxPoint x="416.0000000000002" y="316" as="sourcePoint" />
            <mxPoint x="349.4999999999998" y="353.0000000000001" as="targetPoint" />
            <Array as="points">
              <mxPoint x="416" y="332" />
              <mxPoint x="350" y="332" />
            </Array>
          </mxGeometry>
        </mxCell>
      </root>
    </mxGraphModel>
  </diagram>
</mxfile>
